<?xml version="1.0" encoding="UTF-8"?>
<svg xmlns="http://www.w3.org/2000/svg" xmlns:xlink="http://www.w3.org/1999/xlink" width="1200pt" height="750pt" viewBox="0 0 1200 750" version="1.1">
<g id="surface1">
<path style=" stroke:none;fill-rule:evenodd;fill:rgb(92.54902%,70.588235%,39.215686%);fill-opacity:1;" d="M 0 46.945312 L 0 93.886719 L 6.1875 88.476562 C 9.589844 85.5 13.3125 82.246094 14.464844 81.253906 C 30.652344 67.21875 56.769531 48.125 81 32.613281 C 91.710938 25.757812 105.871094 17.8125 122.011719 9.601562 L 140.894531 0 L 0 0 L 0 46.945312 M 522.8125 0.257812 C 522.984375 0.402344 527.433594 2.757812 532.699219 5.492188 C 647.703125 65.269531 713.355469 164.15625 693.316406 247.421875 C 685.523438 279.8125 664.480469 313.84375 636.6875 339.003906 C 632.8125 342.507812 628.800781 346.152344 627.761719 347.101562 C 626.722656 348.046875 624.257812 350.066406 622.28125 351.589844 C 617.386719 355.359375 618.425781 355.324219 629.164062 351.378906 C 687.140625 330.054688 734.160156 278.726562 744.742188 225.207031 C 745.210938 222.824219 745.90625 219.859375 746.28125 218.625 C 750.910156 203.386719 750.652344 163.746094 745.785156 142.125 C 734.386719 91.503906 714.289062 51.859375 676.125 4.734375 L 672.375 0.105469 L 597.4375 0.0507812 C 556.222656 0.0234375 522.640625 0.117188 522.8125 0.257812 M 817.945312 2.8125 C 818.5625 4.359375 819.371094 6.300781 819.742188 7.125 C 822.292969 12.773438 831.371094 39.199219 833.527344 47.25 C 834.136719 49.519531 835.523438 54.582031 836.609375 58.5 C 841.710938 76.882812 847.019531 106.171875 849.050781 127.125 C 858.644531 226.066406 833.746094 305.734375 781.003906 344.851562 C 759.765625 360.601562 739.554688 368.785156 709.5 373.792969 C 696.71875 375.925781 662.335938 375.726562 649.011719 373.441406 C 625.933594 369.488281 626.773438 369.199219 639.75 376.621094 C 682.726562 401.203125 734.855469 407.890625 780.75 394.710938 C 787.125 392.878906 794.050781 390.550781 796.875 389.292969 C 797.699219 388.925781 800.90625 387.507812 804 386.140625 C 856.824219 362.839844 900.492188 307.851562 922.726562 236.625 C 926.628906 224.136719 928.089844 218.601562 931.847656 202.125 C 934.304688 191.351562 937.167969 172.066406 939.085938 153.375 C 940.210938 142.363281 940.222656 95.023438 939.097656 83.625 C 936.246094 54.730469 933.769531 39.671875 927.523438 13.316406 L 924.375 0.0078125 L 870.601562 0.0078125 L 816.828125 0 L 817.945312 2.8125 M 1109.28125 0.5625 C 1109.300781 0.871094 1109.648438 2.644531 1110.054688 4.5 C 1111.308594 10.234375 1113.679688 24.703125 1114.84375 33.75 C 1115.457031 38.492188 1116.3125 44.90625 1116.742188 48 C 1119.28125 66.265625 1120.40625 107.390625 1119.0625 132.75 C 1111.964844 266.515625 1053.132812 377.121094 947.25 455.746094 C 923.910156 473.078125 883.332031 496.652344 870 500.625 C 868.96875 500.929688 867.785156 501.433594 867.375 501.742188 C 866.964844 502.054688 865.273438 502.730469 863.625 503.25 C 861.976562 503.769531 860.285156 504.449219 859.875 504.761719 C 857.761719 506.363281 831.433594 514.308594 820.5 516.648438 C 767.617188 527.953125 722.449219 518.777344 685.125 489.144531 C 664.984375 473.152344 643.609375 444.195312 632.152344 417.375 C 630.921875 414.484375 629.609375 411.449219 629.238281 410.625 C 627.445312 406.621094 624.816406 399.691406 623.621094 395.8125 C 621.628906 389.347656 620.996094 390.527344 621.015625 400.6875 C 621.058594 427.214844 628.417969 460.394531 639.160156 482.460938 C 640.722656 485.671875 642 488.429688 642 488.589844 C 642 488.75 643.699219 491.820312 645.769531 495.410156 C 690.496094 572.855469 783.085938 603.261719 892.125 576.3125 C 908.554688 572.253906 934.371094 564.019531 942.375 560.289062 C 943.199219 559.902344 946.40625 558.53125 949.5 557.238281 C 958.332031 553.546875 959.746094 552.898438 970.5 547.648438 C 986.90625 539.632812 1011.078125 525.496094 1023.914062 516.410156 C 1026.277344 514.738281 1030.136719 512.023438 1032.496094 510.375 C 1055.578125 494.253906 1088.097656 464.515625 1109.175781 440.25 C 1112.21875 436.742188 1115.59375 432.859375 1116.667969 431.621094 C 1141.910156 402.5625 1175.351562 348.863281 1189.773438 314.230469 C 1190.542969 312.386719 1191.9375 309.1875 1192.871094 307.125 C 1193.804688 305.0625 1194.820312 302.53125 1195.128906 301.5 C 1195.433594 300.46875 1195.933594 299.289062 1196.234375 298.875 C 1199.328125 294.671875 1199.25 298.703125 1199.25 145.363281 L 1199.25 0 L 1154.25 0 C 1129.5 0 1109.265625 0.253906 1109.28125 0.5625 M 335.25 85.554688 C 306.976562 88.054688 278.425781 93.410156 252.75 101.039062 C 236.039062 106.003906 231.039062 107.59375 228.375 108.796875 C 227.550781 109.167969 224.007812 110.507812 220.5 111.773438 C 181.351562 125.90625 137.769531 149.707031 101.25 176.902344 C 93.886719 182.386719 82.222656 191.515625 81 192.757812 C 80.792969 192.964844 78.433594 194.976562 75.75 197.222656 C 62.128906 208.652344 43.625 226.574219 30.375 241.183594 C 19.636719 253.023438 19.261719 253.457031 9.160156 265.984375 L 0 277.339844 L 0 750 L 12.511719 750 L 11.898438 746.4375 C 11.558594 744.476562 10.59375 738.316406 9.75 732.75 C 8.90625 727.183594 8.0625 722.117188 7.882812 721.5 C 7.695312 720.882812 7.035156 715.480469 6.417969 709.5 C 5.796875 703.519531 4.957031 695.417969 4.546875 691.5 C 2.386719 670.792969 1.71875 633.617188 3.023438 607.089844 C 5.222656 562.40625 13.933594 512.324219 25.851562 475.875 C 26.390625 474.226562 27.933594 469.332031 29.28125 465 C 30.628906 460.667969 32.011719 456.804688 32.363281 456.410156 C 32.714844 456.019531 33 455.234375 33 454.664062 C 33 454.09375 33.84375 451.464844 34.875 448.816406 C 35.90625 446.164062 37.636719 441.722656 38.71875 438.9375 C 81.328125 329.257812 158.558594 246.464844 259.875 201.867188 C 264.824219 199.6875 269.441406 197.601562 270.132812 197.230469 C 274.933594 194.65625 308.277344 182.832031 319.699219 179.65625 C 338.855469 174.328125 359.96875 169.804688 374.25 167.964844 C 377.757812 167.515625 382.648438 166.828125 385.125 166.441406 C 392.582031 165.269531 435.03125 164.71875 445.222656 165.65625 C 506.527344 171.304688 551.453125 198.179688 577.121094 244.574219 C 580.171875 250.085938 581.613281 253.15625 586.074219 263.625 C 588.917969 270.308594 592.289062 281.601562 594.695312 292.5 C 596.152344 299.121094 596.652344 302.042969 598.519531 315 C 598.90625 317.683594 599.449219 327.289062 599.734375 336.355469 L 600.25 352.832031 L 601.683594 349.480469 C 619.777344 307.175781 619.9375 248.722656 602.078125 208.5 C 581.683594 162.566406 550.726562 133.003906 497.625 108.753906 C 455.878906 89.683594 391.921875 80.546875 335.25 85.554688 M 402.375 265.921875 C 369.824219 270.40625 343.664062 280.429688 309 301.703125 C 266.167969 327.988281 220.589844 377.578125 189.933594 431.25 C 182.179688 444.824219 164.25 482.234375 164.25 484.839844 C 164.25 485.148438 163.753906 486.460938 163.144531 487.761719 C 160.773438 492.839844 154.96875 509.605469 151.160156 522.375 C 150.054688 526.089844 148.695312 530.644531 148.144531 532.5 C 147.589844 534.355469 146.082031 540.265625 144.796875 545.625 C 143.507812 550.984375 142.132812 556.726562 141.730469 558.375 C 138.199219 573.019531 134.601562 596.902344 131.890625 623.625 C 130.703125 635.363281 130.675781 692.585938 131.851562 704.25 C 132.957031 715.210938 135.5 735.828125 136.707031 743.625 L 137.636719 749.625 L 193.695312 749.816406 C 256.410156 750.03125 250.75 750.550781 248.929688 744.742188 C 247.011719 738.621094 243.007812 719.167969 241.132812 706.875 C 240.503906 702.75 239.652344 697.183594 239.238281 694.5 C 235.832031 672.410156 235.46875 621.964844 238.546875 598.875 C 238.933594 595.984375 239.730469 589.898438 240.316406 585.347656 C 243.433594 561.296875 256.832031 508.683594 263.234375 495.375 C 263.632812 494.550781 264.820312 491.515625 265.878906 488.625 C 270.765625 475.261719 284.511719 446.179688 291.996094 433.359375 C 293.761719 430.34375 295.855469 426.730469 296.664062 425.335938 C 344.890625 341.589844 420.328125 298.484375 490.875 314.363281 C 520.3125 320.992188 555.558594 339.097656 578.25 359.253906 C 587.5625 367.519531 587.867188 367.449219 582.59375 358.214844 C 561.492188 321.265625 526.144531 289.996094 490.125 276.402344 C 487.234375 275.3125 484.199219 274.132812 483.375 273.78125 C 464.238281 265.621094 429.226562 262.222656 402.375 265.921875 M 521.625 381.039062 C 507.980469 382.8125 487.039062 387.738281 480.375 390.742188 C 479.550781 391.117188 476.515625 392.324219 473.625 393.433594 C 444.910156 404.4375 416.445312 427.453125 396.785156 455.566406 C 392.941406 461.066406 383.25 477.203125 383.25 478.105469 C 383.25 478.242188 381.9375 481.171875 380.335938 484.613281 C 354.6875 539.675781 350.953125 616.042969 370.285156 690 C 373.816406 703.496094 379.792969 722.804688 381.78125 727.125 C 382.160156 727.949219 383.464844 731.324219 384.679688 734.625 C 385.894531 737.925781 387.726562 742.648438 388.75 745.125 L 390.613281 749.625 L 445.832031 749.816406 L 501.058594 750.007812 L 496.621094 743.441406 C 463.714844 694.699219 440.621094 638.699219 433.132812 589.5 C 432.535156 585.582031 431.617188 579.507812 431.089844 576 C 428.398438 558.199219 430.316406 523.449219 434.992188 505.125 C 441.558594 479.414062 458.164062 450.363281 474.863281 435.375 C 482.402344 428.605469 483.976562 427.296875 489.550781 423.164062 C 514.207031 404.882812 543.820312 392.835938 579.5625 386.539062 C 583.789062 385.792969 587.25 384.96875 587.25 384.707031 C 587.25 384.203125 575.21875 381.960938 567 380.9375 C 560.914062 380.175781 527.695312 380.253906 521.625 381.039062 M 597 400.632812 C 570.820312 422.074219 550.679688 450.472656 538.1875 483.5625 C 528.347656 509.628906 525.195312 554.414062 531.710938 575.625 C 532.09375 576.859375 532.785156 579.898438 533.253906 582.375 C 533.722656 584.851562 534.5625 588.226562 535.117188 589.875 C 535.675781 591.523438 536.691406 594.730469 537.378906 597 C 549.566406 637.238281 584.367188 683.125 628.035156 716.53125 C 640.726562 726.242188 668.320312 744.75 670.109375 744.75 C 670.246094 744.75 672.445312 745.933594 675 747.375 L 679.644531 750 L 1109.578125 750 L 1118.601562 745.382812 C 1127.847656 740.652344 1148.949219 728.734375 1156.726562 723.855469 C 1168.035156 716.761719 1180.253906 708.660156 1189.3125 702.238281 L 1199.25 695.199219 L 1199.25 617.246094 C 1199.25 555.171875 1199.058594 539.378906 1198.3125 539.699219 C 1197.796875 539.921875 1195.6875 542.121094 1193.625 544.585938 C 1158.433594 586.660156 1084.558594 641.46875 1033.5 663.382812 C 1029.992188 664.882812 1026.046875 666.601562 1024.734375 667.195312 C 998.65625 678.976562 955.550781 690.820312 924 694.875 C 919.257812 695.488281 913.183594 696.316406 910.5 696.71875 C 895.066406 699.035156 848.476562 699.484375 829.125 697.503906 C 795.289062 694.035156 768.511719 689.074219 743.625 681.664062 C 734.167969 678.847656 717.414062 673.230469 715.5 672.234375 C 714.46875 671.695312 713.285156 671.257812 712.875 671.253906 C 709.835938 671.222656 679.480469 657.113281 666.375 649.636719 C 625.792969 626.488281 588.265625 587.585938 580.140625 560.25 C 579.835938 559.21875 579.132812 557.359375 578.578125 556.125 C 570.621094 538.265625 567.046875 502.574219 570.960938 480 C 573.613281 464.667969 574.277344 462.046875 579.511719 446.25 C 583.988281 432.734375 594.835938 409.675781 601.308594 399.90625 C 604.890625 394.5 604.378906 394.585938 597 400.632812 "/>
<path style=" stroke:none;fill-rule:evenodd;fill:rgb(95.686275%,85.882353%,67.058824%);fill-opacity:1;" d="M 141 1.179688 C 139.96875 1.753906 134.566406 4.429688 129 7.125 C 119.28125 11.832031 114.257812 14.4375 102 21.148438 C 94.3125 25.359375 70.613281 40.175781 62.101562 46.101562 C 58.261719 48.769531 54.492188 51.386719 53.722656 51.914062 C 51.5625 53.386719 30.488281 69.234375 29.527344 70.105469 C 29.058594 70.53125 27.214844 72.058594 25.421875 73.5 C 20.808594 77.222656 12.367188 84.304688 5.761719 90 L 0.101562 94.875 L 0 276.0625 L 7.621094 266.46875 C 21.234375 249.339844 35.347656 233.828125 52.066406 217.613281 C 55.753906 214.042969 59.464844 210.433594 60.316406 209.59375 C 67.015625 203.007812 86.011719 187.238281 99 177.484375 C 103.742188 173.921875 107.960938 170.734375 108.375 170.40625 C 108.789062 170.074219 114.691406 166.140625 121.5 161.660156 C 128.308594 157.183594 134.71875 152.949219 135.75 152.253906 C 146.664062 144.886719 182.089844 126.433594 199.125 119.230469 C 199.949219 118.882812 202.3125 117.878906 204.375 117.003906 C 206.4375 116.125 210.316406 114.5625 213 113.527344 C 215.683594 112.496094 219.058594 111.175781 220.5 110.59375 C 225.074219 108.75 237.742188 104.507812 247.125 101.683594 C 250.835938 100.5625 255.464844 99.160156 257.40625 98.566406 C 259.347656 97.976562 263.230469 96.957031 266.03125 96.308594 C 268.832031 95.65625 273.992188 94.460938 277.5 93.644531 C 290.660156 90.585938 305.371094 88.074219 325.125 85.515625 C 345.019531 82.941406 391.277344 82.929688 411.375 85.496094 C 429.65625 87.832031 454.789062 92.722656 463.125 95.5625 C 464.773438 96.121094 469.160156 97.492188 472.875 98.597656 C 476.589844 99.707031 480.300781 100.921875 481.125 101.292969 C 481.949219 101.667969 485.324219 102.960938 488.625 104.167969 C 508.378906 111.40625 537.214844 127.460938 548.722656 137.625 C 549.191406 138.039062 551.050781 139.542969 552.847656 140.96875 C 584.789062 166.226562 608.671875 208.867188 614.828125 251.625 C 618.550781 277.488281 614.21875 322.308594 606.335938 339.488281 C 605.738281 340.789062 605.25 342.238281 605.25 342.71875 C 605.25 343.195312 604.636719 344.996094 603.882812 346.726562 C 603.132812 348.460938 601.902344 351.300781 601.152344 353.042969 C 598.972656 358.117188 598.734375 356.648438 598.238281 335.082031 C 597.984375 323.832031 597.445312 312.769531 597.046875 310.5 C 594.800781 297.675781 593.25 290.007812 591.898438 285 C 588.804688 273.5625 587.96875 270.863281 586.878906 268.769531 C 586.261719 267.589844 585.757812 266.242188 585.757812 265.78125 C 585.753906 265.316406 584.882812 262.953125 583.828125 260.53125 C 570.550781 230.128906 551.5625 207.59375 525.578125 191.394531 C 520.15625 188.011719 502.394531 179.25 500.96875 179.25 C 500.488281 179.25 499.039062 178.761719 497.738281 178.164062 C 490.324219 174.757812 474.960938 170.863281 457.875 168.0625 C 438.316406 164.855469 403.054688 164.847656 380.25 168.042969 C 365.257812 170.140625 348.277344 173.324219 337.125 176.121094 C 333.824219 176.949219 329.605469 178.003906 327.75 178.457031 C 319.21875 180.566406 285.472656 191.554688 283.875 192.742188 C 283.460938 193.054688 281.773438 193.730469 280.125 194.25 C 278.476562 194.769531 276.789062 195.445312 276.375 195.757812 C 275.960938 196.066406 274.78125 196.566406 273.75 196.871094 C 265.214844 199.394531 225.808594 219.253906 213.128906 227.414062 C 212.023438 228.121094 210.1875 229.234375 209.035156 229.886719 C 207.175781 230.9375 198.617188 236.683594 189 243.332031 C 180.742188 249.046875 163.714844 262.175781 161.25 264.734375 C 161.042969 264.949219 158.511719 267.144531 155.625 269.609375 C 137.386719 285.1875 113.929688 310.730469 97.066406 333.375 C 79.332031 357.195312 60.449219 390.449219 47.25 421.125 C 45.121094 426.074219 42.9375 431.140625 42.40625 432.375 C 41.871094 433.609375 40.523438 436.984375 39.414062 439.875 C 38.304688 442.765625 36.910156 446.191406 36.324219 447.488281 C 35.734375 448.789062 35.246094 450.304688 35.242188 450.863281 C 35.242188 451.417969 34.804688 452.71875 34.269531 453.75 C 33.734375 454.78125 32.1875 459.167969 30.828125 463.5 C 29.46875 467.832031 28.066406 472.050781 27.703125 472.875 C 27.347656 473.699219 26.503906 476.398438 25.828125 478.875 C 25.15625 481.351562 23.988281 485.566406 23.234375 488.25 C 13.109375 524.3125 7.09375 559.59375 4.363281 598.875 C 2.511719 625.585938 3.289062 671.40625 6.03125 697.125 C 7.953125 715.117188 11.367188 739.671875 12.835938 746.0625 L 13.738281 750 L 75.121094 750 C 112.347656 750 136.5 749.726562 136.5 749.304688 C 136.5 747.691406 134.902344 736.609375 134.222656 733.5 C 133.464844 730.027344 131.625 712.441406 130.492188 697.875 C 130.144531 693.339844 129.855469 678.148438 129.855469 664.125 C 129.855469 650.101562 130.144531 634.910156 130.492188 630.375 C 131.492188 617.5 133.433594 598.320312 133.945312 596.25 C 134.203125 595.21875 135.050781 590.15625 135.828125 585 C 138.617188 566.503906 145.699219 535.066406 149.597656 523.875 C 150.171875 522.226562 151.527344 518.007812 152.609375 514.5 C 155.566406 504.925781 163.585938 483.289062 167.203125 475.125 C 167.566406 474.300781 168.613281 471.9375 169.523438 469.875 C 176.394531 454.351562 191.527344 425.496094 197.257812 417 C 197.953125 415.96875 201.523438 410.566406 205.1875 405 C 228.402344 369.738281 259.003906 336.863281 289.875 314.023438 C 293.585938 311.273438 296.960938 308.761719 297.375 308.433594 C 305.914062 301.648438 344.929688 279.773438 348.539062 279.742188 C 348.859375 279.742188 350.019531 279.273438 351.113281 278.703125 C 358.15625 275.027344 381.84375 268.167969 396.617188 265.523438 C 410.746094 262.996094 442.890625 263.007812 455.183594 265.546875 C 467.800781 268.148438 479.050781 270.964844 481.875 272.226562 C 482.699219 272.59375 484.675781 273.292969 486.261719 273.78125 C 487.847656 274.265625 490.039062 275.128906 491.136719 275.703125 C 492.230469 276.273438 493.402344 276.742188 493.738281 276.742188 C 497.890625 276.777344 527.648438 294.898438 538.085938 303.75 C 546.046875 310.507812 550.804688 315.105469 559.046875 324.027344 C 570.5625 336.496094 590.542969 366.703125 588.574219 368.675781 C 588.375 368.875 585.210938 366.445312 581.542969 363.28125 C 520.6875 310.75 453.878906 298.246094 394.234375 328.226562 C 389.761719 330.472656 385.207031 332.914062 384.109375 333.652344 C 383.019531 334.386719 379.59375 336.628906 376.5 338.632812 C 357.027344 351.269531 328.269531 379.488281 315.75 398.238281 C 315.132812 399.164062 314.085938 400.644531 313.425781 401.523438 C 300.664062 418.566406 284.710938 447.019531 273.097656 473.4375 C 272.328125 475.191406 271.148438 477.859375 270.472656 479.363281 C 269.800781 480.871094 269.25 482.335938 269.25 482.625 C 269.25 482.914062 268.765625 484.210938 268.175781 485.511719 C 265.230469 492.007812 256.648438 516.820312 253.871094 526.875 C 248.542969 546.1875 244.820312 562.945312 242.632812 577.5 C 242.039062 581.417969 241.195312 586.648438 240.75 589.125 C 237.878906 605.152344 236.128906 650.347656 237.703125 667.875 C 238.183594 673.234375 238.894531 681.339844 239.285156 685.875 C 239.675781 690.410156 240.347656 696.148438 240.777344 698.625 C 241.207031 701.101562 242.039062 706.332031 242.632812 710.25 C 244.273438 721.132812 247.773438 737.671875 250.191406 745.992188 L 251.355469 750 L 320.769531 750 C 376.175781 750 390.042969 749.8125 389.484375 749.0625 C 389.097656 748.546875 387.816406 745.59375 386.632812 742.5 C 385.453125 739.40625 383.871094 735.460938 383.117188 733.726562 C 382.363281 731.996094 381.75 730.195312 381.75 729.71875 C 381.75 729.238281 381.261719 727.789062 380.660156 726.488281 C 374.34375 712.761719 364.191406 672.550781 361.132812 649.125 C 360.535156 644.589844 359.703125 639.019531 359.269531 636.75 C 356.671875 623.027344 356.644531 570.058594 359.230469 557.582031 C 359.652344 555.542969 360.488281 550.5 361.089844 546.375 C 363.355469 530.851562 369.996094 505.445312 374.230469 496.125 C 374.605469 495.300781 376.132812 491.757812 377.632812 488.25 C 382.789062 476.164062 392.445312 459.175781 398.574219 451.40625 C 399.425781 450.324219 400.769531 448.546875 401.554688 447.453125 C 414.105469 430.023438 438.320312 409.734375 459.3125 399.058594 C 467.191406 395.050781 469.207031 394.144531 478.125 390.621094 C 508.910156 378.445312 552.910156 375.382812 585.316406 383.15625 C 592.453125 384.871094 592.238281 385.773438 584.449219 386.808594 C 570.523438 388.65625 549.589844 393.757812 541.761719 397.210938 C 540.460938 397.78125 539.140625 398.25 538.820312 398.25 C 537.847656 398.25 528.6875 401.941406 522.898438 404.671875 C 519.886719 406.089844 517.25 407.25 517.046875 407.25 C 516.328125 407.25 500.59375 416.488281 496.125 419.535156 C 473.417969 435.015625 454.546875 457.285156 444.699219 480.238281 C 443.425781 483.199219 441.949219 486.640625 441.410156 487.875 C 440.875 489.109375 439.53125 493.160156 438.433594 496.875 C 437.332031 500.589844 436.121094 504.640625 435.742188 505.875 C 434.964844 508.417969 432.949219 519.746094 431.878906 527.625 C 430.890625 534.851562 430.933594 567.460938 431.941406 575.25 C 434.59375 595.820312 438.230469 613.359375 443.210938 629.625 C 444.097656 632.515625 445.257812 636.394531 445.792969 638.25 C 446.972656 642.335938 451.972656 656.21875 453.765625 660.375 C 454.472656 662.023438 455.980469 665.714844 457.105469 668.570312 C 458.230469 671.429688 459.4375 674.296875 459.78125 674.945312 C 460.125 675.59375 461.308594 678.148438 462.40625 680.625 C 470.449219 698.726562 482.160156 719.765625 495.914062 740.8125 L 501.921875 750 L 589.773438 749.992188 L 677.625 749.980469 L 674.359375 748.117188 C 672.566406 747.089844 671.015625 746.25 670.917969 746.25 C 670.117188 746.25 648.722656 732.734375 642.140625 728.074219 C 634.636719 722.761719 634.054688 722.328125 626.296875 716.320312 C 572.492188 674.636719 539.367188 624.351562 529.53125 569.414062 C 527.117188 555.9375 527.089844 526.429688 529.480469 513.238281 C 530.964844 505.03125 534.910156 489.316406 536.226562 486.375 C 536.59375 485.550781 537.292969 483.574219 537.78125 481.988281 C 538.265625 480.402344 539.128906 478.210938 539.703125 477.113281 C 540.273438 476.019531 540.742188 474.878906 540.742188 474.574219 C 540.8125 466.566406 565.691406 429.511719 581.964844 413.1875 C 600.046875 395.046875 609.136719 389.09375 602.625 399.664062 C 597.890625 407.34375 595.699219 411.363281 591.539062 420 C 586.117188 431.253906 584.675781 434.488281 583.867188 437.25 C 583.5625 438.28125 583.070312 439.464844 582.769531 439.875 C 582.277344 440.550781 580.945312 444.542969 577.210938 456.53125 C 574.808594 464.230469 572.988281 473.375 570.753906 489 C 567.410156 512.324219 573.265625 545.023438 584.980469 568.5 C 604.800781 608.210938 647.074219 643.507812 701.25 665.578125 C 703.933594 666.671875 706.800781 667.871094 707.625 668.242188 C 712.765625 670.5625 731.699219 677.09375 742.125 680.140625 C 745.015625 680.988281 749.132812 682.203125 751.28125 682.84375 C 762.886719 686.308594 787.5625 691.292969 803.25 693.339844 C 807.992188 693.957031 813.898438 694.816406 816.375 695.242188 C 833.089844 698.121094 900.296875 698.355469 912.664062 695.574219 C 913.648438 695.351562 919.214844 694.523438 925.039062 693.730469 C 943.25 691.253906 958.507812 688.027344 979.875 682.125 C 986.128906 680.398438 1011.210938 671.949219 1012.125 671.257812 C 1012.535156 670.949219 1014.226562 670.269531 1015.875 669.75 C 1017.523438 669.230469 1019.214844 668.554688 1019.625 668.25 C 1020.035156 667.945312 1021.636719 667.289062 1023.175781 666.796875 C 1024.714844 666.296875 1028.347656 664.738281 1031.257812 663.320312 C 1034.164062 661.90625 1036.699219 660.75 1036.894531 660.75 C 1038.085938 660.75 1063.90625 647.332031 1072.339844 642.328125 C 1094.5 629.191406 1112.96875 616.40625 1132.875 600.433594 C 1152.414062 584.761719 1172.640625 565.960938 1189.015625 548.246094 C 1192.257812 544.742188 1196.054688 540.640625 1197.453125 539.128906 L 1200 536.382812 L 1199.980469 414.253906 L 1199.957031 292.125 L 1197.714844 297.75 C 1196.476562 300.84375 1195.15625 304.050781 1194.78125 304.875 C 1194.40625 305.699219 1192.390625 310.304688 1190.300781 315.105469 C 1183.222656 331.390625 1165.402344 365.199219 1158.734375 375 C 1158.035156 376.03125 1154.230469 381.769531 1150.28125 387.75 C 1142.796875 399.085938 1139.902344 403.320312 1137.375 406.628906 C 1136.550781 407.710938 1135.199219 409.554688 1134.375 410.722656 C 1108.113281 447.972656 1061.550781 492.460938 1020 520.003906 C 1008.292969 527.761719 994.75 536.25 994.070312 536.25 C 993.96875 536.25 991.414062 537.648438 988.394531 539.359375 C 976.019531 546.371094 957.316406 555.277344 943.875 560.554688 C 938.925781 562.496094 934.199219 564.394531 933.375 564.769531 C 931.558594 565.597656 914.609375 571.230469 909.375 572.746094 C 890.78125 578.128906 872.824219 581.941406 856.875 583.890625 C 851.925781 584.492188 845.175781 585.320312 841.875 585.730469 C 823.585938 587.984375 781.679688 586.246094 770.625 582.78125 C 769.386719 582.390625 766.183594 581.695312 763.5 581.230469 C 760.816406 580.765625 757.105469 579.925781 755.25 579.367188 C 742.878906 575.640625 738.140625 574.078125 734.386719 572.476562 C 732.042969 571.480469 729.453125 570.453125 728.632812 570.195312 C 720.628906 567.699219 696.496094 553.042969 685.226562 543.835938 C 664.765625 527.113281 644.445312 499.660156 635.484375 476.625 C 635.003906 475.390625 634.046875 473.023438 633.363281 471.375 C 628.660156 460.066406 623.160156 438.085938 621.8125 425.25 C 619.976562 407.761719 619.945312 386.332031 621.753906 388.234375 C 622.089844 388.585938 623.269531 391.574219 624.375 394.875 C 628.660156 407.660156 629.777344 410.347656 636.714844 424.5 C 652.621094 456.957031 673.136719 481.132812 699 497.890625 C 705.558594 502.140625 721.917969 510.277344 725.726562 511.195312 C 726.910156 511.476562 728.214844 511.96875 728.625 512.28125 C 729.574219 513.015625 736.90625 515.089844 743.25 516.417969 C 745.933594 516.980469 749.527344 517.78125 751.246094 518.199219 C 757.257812 519.660156 775.027344 520.660156 786 520.148438 C 806.726562 519.1875 823 516.089844 846 508.730469 C 849.09375 507.742188 852.300781 506.65625 853.125 506.316406 C 853.949219 505.976562 856.648438 504.9375 859.125 504 C 876.425781 497.464844 908.132812 481.503906 920.25 473.230469 C 921.28125 472.523438 925.234375 469.890625 929.039062 467.378906 C 966.125 442.871094 1004.613281 407.332031 1030.734375 373.46875 C 1031.222656 372.835938 1033.179688 370.300781 1035.078125 367.84375 C 1053.679688 343.769531 1074.40625 307.921875 1085.578125 280.5 C 1086.671875 277.816406 1087.871094 274.949219 1088.242188 274.125 C 1089.554688 271.21875 1092.75 262.75 1092.75 262.179688 C 1092.75 261.859375 1093.234375 260.539062 1093.828125 259.238281 C 1095.445312 255.699219 1098.347656 246.640625 1102.761719 231.375 C 1103.875 227.527344 1106.695312 216.007812 1108.84375 206.53125 C 1110.574219 198.886719 1112.0625 190.167969 1113.683594 178.125 C 1114.460938 172.351562 1115.300781 166.78125 1115.554688 165.75 C 1117.871094 156.253906 1119.816406 94.605469 1118.320312 78 C 1117.855469 72.84375 1116.96875 62.886719 1116.355469 55.875 C 1115.046875 40.914062 1113.421875 27.394531 1112.296875 22.125 C 1111.519531 18.480469 1109.503906 7.359375 1108.722656 2.4375 L 1108.335938 0 L 1016.917969 0 C 966.640625 0 925.507812 0.253906 925.511719 0.5625 C 925.519531 0.871094 926.042969 3.148438 926.679688 5.625 C 939.046875 53.828125 945.046875 122.683594 939.8125 156.375 C 939.367188 159.261719 938.488281 166.011719 937.867188 171.375 C 935.714844 189.886719 931.476562 210.515625 925.996094 229.125 C 925.386719 231.1875 924.402344 234.5625 923.804688 236.625 C 922.6875 240.488281 916.816406 256.808594 914.636719 262.125 C 909.351562 275.003906 897.988281 297.898438 893.980469 303.75 C 893.273438 304.78125 889.945312 309.789062 886.578125 314.878906 C 863.425781 349.902344 834.3125 374.472656 797.625 389.953125 C 785.359375 395.128906 766.351562 399.9375 752.625 401.339844 C 743.363281 402.28125 711.492188 401.734375 705.375 400.519531 C 675.925781 394.695312 655.824219 387.484375 636.375 375.761719 C 633.484375 374.023438 630.199219 372.042969 629.066406 371.359375 C 626.710938 369.945312 626.40625 369 628.3125 369 C 630.007812 369.003906 641.28125 371 642.75 371.5625 C 648.238281 373.648438 682.84375 375.433594 694.820312 374.242188 C 727.109375 371.035156 743.589844 366.324219 765.375 354.0625 C 794.101562 337.898438 820.945312 305.59375 832.117188 273.75 C 840.332031 250.34375 843.777344 236.851562 846.386719 217.875 C 846.953125 213.75 847.855469 207.507812 848.398438 204 C 849.742188 195.214844 849.757812 138.828125 848.414062 129.375 C 847.886719 125.664062 846.96875 118.574219 846.375 113.625 C 844.273438 96.121094 839.867188 73.300781 836.175781 60.808594 C 835.390625 58.164062 834.75 55.605469 834.75 55.125 C 834.75 52.882812 823.234375 18.109375 819.648438 9.511719 C 818.410156 6.550781 817.050781 3.199219 816.628906 2.0625 L 815.851562 0 L 673.496094 0 L 679.746094 7.6875 C 699.582031 32.09375 714.914062 56.503906 727.824219 84.234375 C 729.707031 88.277344 731.253906 91.824219 731.257812 92.109375 C 731.257812 92.390625 731.695312 93.46875 732.226562 94.5 C 732.761719 95.53125 734.308594 99.582031 735.671875 103.5 C 737.03125 107.417969 738.421875 111.300781 738.757812 112.125 C 740.710938 116.929688 743.730469 128.59375 747.304688 145.125 C 752.554688 169.402344 751.15625 208.589844 744.222656 231.375 C 741.90625 238.984375 739.378906 246.441406 738.328125 248.738281 C 737.734375 250.039062 737.25 251.296875 737.25 251.539062 C 737.25 252.726562 729.726562 267.511719 725.773438 274.089844 C 703.980469 310.351562 665.558594 340.675781 624.4375 354.070312 C 613.53125 357.625 613.234375 357.085938 622.285156 350.25 C 654.105469 326.222656 682.671875 285.222656 691.519531 250.875 C 695.355469 235.984375 697.246094 210.039062 695.3125 198.75 C 692.886719 184.546875 692.300781 181.46875 691.195312 177 C 690.527344 174.316406 689.683594 171.449219 689.320312 170.625 C 688.953125 169.800781 687.910156 166.933594 687.003906 164.25 C 675.269531 129.640625 643.808594 87.289062 607.53125 57.269531 C 606.109375 56.089844 604.089844 54.339844 603.046875 53.378906 C 596.980469 47.785156 567.964844 27.121094 555.75 19.699219 C 547.519531 14.695312 540.75 10.816406 534.582031 7.570312 C 530.757812 5.554688 525.972656 3.03125 523.949219 1.953125 L 520.277344 0 L 331.574219 0.0703125 C 171.980469 0.125 142.585938 0.296875 141 1.179688 M 1195.976562 698.710938 C 1180.050781 710.398438 1153.648438 727.390625 1139.25 735.226562 C 1136.980469 736.457031 1132.933594 738.714844 1130.25 740.230469 C 1125.8125 742.746094 1121.839844 744.859375 1114.5 748.601562 C 1111.949219 749.902344 1113.148438 749.941406 1155.9375 749.96875 L 1200 750 L 1200 723 C 1200 708.148438 1199.914062 696.007812 1199.8125 696.019531 C 1199.710938 696.03125 1197.984375 697.242188 1195.976562 698.710938 "/>
<path style=" stroke:none;fill-rule:evenodd;fill:rgb(92.54902%,76.862745%,52.54902%);fill-opacity:1;" d="M 1119.246094 96.375 C 1119.25 99.261719 1119.382812 100.351562 1119.546875 98.796875 C 1119.710938 97.238281 1119.707031 94.878906 1119.539062 93.546875 C 1119.375 92.214844 1119.242188 93.488281 1119.246094 96.375 M 940.796875 117.75 C 940.796875 123.730469 940.914062 126.175781 941.058594 123.1875 C 941.199219 120.199219 941.199219 115.300781 941.058594 112.3125 C 940.914062 109.324219 940.796875 111.769531 940.796875 117.75 M 1119.238281 114.75 C 1119.238281 117.433594 1119.375 118.527344 1119.542969 117.1875 C 1119.707031 115.847656 1119.707031 113.652344 1119.542969 112.3125 C 1119.375 110.972656 1119.238281 112.066406 1119.238281 114.75 M 939.925781 141 C 939.925781 142.441406 940.078125 143.035156 940.265625 142.3125 C 940.453125 141.589844 940.453125 140.410156 940.265625 139.6875 C 940.078125 138.964844 939.925781 139.558594 939.925781 141 M 849.9375 148.125 C 849.949219 149.773438 850.101562 150.363281 850.28125 149.429688 C 850.460938 148.496094 850.453125 147.148438 850.265625 146.429688 C 850.078125 145.714844 849.929688 146.476562 849.9375 148.125 M 849.925781 186 C 849.925781 187.441406 850.078125 188.035156 850.265625 187.3125 C 850.453125 186.589844 850.453125 185.410156 850.265625 184.6875 C 850.078125 183.964844 849.925781 184.558594 849.925781 186 M 456.960938 311.800781 C 458.929688 311.957031 461.96875 311.953125 463.710938 311.800781 C 465.449219 311.640625 463.839844 311.515625 460.125 311.515625 C 456.410156 311.519531 454.988281 311.644531 456.960938 311.800781 M 599.511719 342.75 C 599.511719 346.257812 599.640625 347.691406 599.800781 345.9375 C 599.957031 344.183594 599.957031 341.316406 599.800781 339.5625 C 599.640625 337.808594 599.511719 339.242188 599.511719 342.75 M 253.109375 346.6875 L 246.375 353.625 L 253.3125 346.890625 C 259.753906 340.636719 260.59375 339.75 260.046875 339.75 C 259.933594 339.75 256.8125 342.871094 253.109375 346.6875 M 1001.589844 407.4375 L 998.625 410.625 L 1001.8125 407.660156 C 1004.777344 404.902344 1005.34375 404.25 1004.777344 404.25 C 1004.65625 404.25 1003.222656 405.683594 1001.589844 407.4375 M 569.425781 499.5 C 569.425781 500.941406 569.578125 501.535156 569.765625 500.8125 C 569.953125 500.089844 569.953125 498.910156 569.765625 498.1875 C 569.578125 497.464844 569.425781 498.058594 569.425781 499.5 M 569.425781 510 C 569.425781 511.441406 569.578125 512.035156 569.765625 511.3125 C 569.953125 510.589844 569.953125 509.410156 569.765625 508.6875 C 569.578125 507.964844 569.425781 508.558594 569.425781 510 M 769.320312 521.03125 C 770.253906 521.210938 771.601562 521.203125 772.320312 521.015625 C 773.035156 520.828125 772.273438 520.679688 770.625 520.6875 C 768.976562 520.699219 768.386719 520.851562 769.320312 521.03125 M 785.070312 521.03125 C 786.003906 521.210938 787.351562 521.203125 788.070312 521.015625 C 788.785156 520.828125 788.023438 520.679688 786.375 520.6875 C 784.726562 520.699219 784.136719 520.851562 785.070312 521.03125 M 672 531.375 C 673.398438 532.816406 674.710938 534 674.917969 534 C 675.125 534 674.148438 532.816406 672.75 531.375 C 671.351562 529.933594 670.039062 528.75 669.832031 528.75 C 669.625 528.75 670.601562 529.933594 672 531.375 M 430.035156 550.5 C 430.035156 555.242188 430.15625 557.183594 430.304688 554.8125 C 430.453125 552.441406 430.453125 548.558594 430.304688 546.1875 C 430.15625 543.816406 430.035156 545.757812 430.035156 550.5 M 1181.589844 556.6875 L 1178.625 559.875 L 1181.8125 556.910156 C 1184.777344 554.152344 1185.34375 553.5 1184.777344 553.5 C 1184.65625 553.5 1183.222656 554.933594 1181.589844 556.6875 M 1168.089844 570.1875 L 1165.125 573.375 L 1168.3125 570.410156 C 1171.277344 567.652344 1171.84375 567 1171.277344 567 C 1171.15625 567 1169.722656 568.433594 1168.089844 570.1875 M 807.949219 586.285156 C 809.089844 586.460938 810.773438 586.453125 811.699219 586.277344 C 812.617188 586.101562 811.6875 585.960938 809.625 585.964844 C 807.5625 585.96875 806.808594 586.117188 807.949219 586.285156 M 821.4375 586.285156 C 822.574219 586.457031 824.425781 586.457031 825.5625 586.285156 C 826.699219 586.117188 825.769531 585.976562 823.5 585.976562 C 821.230469 585.976562 820.300781 586.117188 821.4375 586.285156 M 618.75 614.625 C 620.148438 616.066406 621.460938 617.25 621.667969 617.25 C 621.875 617.25 620.898438 616.066406 619.5 614.625 C 618.101562 613.183594 616.789062 612 616.582031 612 C 616.375 612 617.351562 613.183594 618.75 614.625 M 2.554688 636.75 C 2.554688 643.558594 2.671875 646.339844 2.808594 642.9375 C 2.945312 639.535156 2.945312 633.964844 2.808594 630.5625 C 2.671875 627.160156 2.554688 629.941406 2.554688 636.75 M 236.488281 636 C 236.488281 638.683594 236.625 639.777344 236.792969 638.4375 C 236.957031 637.097656 236.957031 634.902344 236.792969 633.5625 C 236.625 632.222656 236.488281 633.316406 236.488281 636 M 236.507812 649.875 C 236.511719 653.175781 236.644531 654.433594 236.800781 652.667969 C 236.957031 650.902344 236.953125 648.203125 236.796875 646.667969 C 236.632812 645.132812 236.503906 646.574219 236.507812 649.875 M 129.9375 649.125 C 129.949219 650.773438 130.101562 651.363281 130.28125 650.429688 C 130.460938 649.496094 130.453125 648.148438 130.265625 647.429688 C 130.078125 646.714844 129.929688 647.476562 129.9375 649.125 M 129.953125 679.5 C 129.953125 681.355469 130.101562 682.117188 130.277344 681.1875 C 130.457031 680.257812 130.457031 678.742188 130.277344 677.8125 C 130.101562 676.882812 129.953125 677.644531 129.953125 679.5 M 595.125 688.5 C 597.15625 690.5625 598.984375 692.25 599.191406 692.25 C 599.398438 692.25 597.90625 690.5625 595.875 688.5 C 593.84375 686.4375 592.015625 684.75 591.808594 684.75 C 591.601562 684.75 593.09375 686.4375 595.125 688.5 M 861.21875 698.808594 C 864.019531 698.953125 868.40625 698.949219 870.96875 698.804688 C 873.53125 698.65625 871.238281 698.539062 865.875 698.539062 C 860.511719 698.542969 858.417969 698.660156 861.21875 698.808594 "/>
<path style=" stroke:none;fill-rule:evenodd;fill:rgb(92.54902%,76.862745%,48.627451%);fill-opacity:1;" d="M 1199.4375 145.25 C 1199.335938 225.34375 1199.054688 291.496094 1198.816406 292.25 C 1198.429688 293.480469 1198.472656 293.492188 1199.195312 292.378906 C 1199.769531 291.492188 1199.949219 248.605469 1199.8125 145.378906 L 1199.621094 -0.375 L 1199.4375 145.25 M 1116.9375 52.875 C 1116.949219 54.523438 1117.101562 55.113281 1117.28125 54.179688 C 1117.460938 53.246094 1117.453125 51.898438 1117.265625 51.179688 C 1117.078125 50.464844 1116.929688 51.226562 1116.9375 52.875 M 621.71875 69.1875 C 623.558594 71.148438 625.160156 72.75 625.28125 72.75 C 625.84375 72.75 625.246094 72.078125 621.9375 68.96875 L 618.375 65.625 L 621.71875 69.1875 M 937.675781 70.5 C 937.675781 71.941406 937.828125 72.535156 938.015625 71.8125 C 938.203125 71.089844 938.203125 69.910156 938.015625 69.1875 C 937.828125 68.464844 937.675781 69.058594 937.675781 70.5 M 346.6875 84.515625 C 347.410156 84.703125 348.589844 84.703125 349.3125 84.515625 C 350.035156 84.328125 349.441406 84.175781 348 84.175781 C 346.558594 84.175781 345.964844 84.328125 346.6875 84.515625 M 387.1875 84.515625 C 387.910156 84.703125 389.089844 84.703125 389.8125 84.515625 C 390.535156 84.328125 389.941406 84.175781 388.5 84.175781 C 387.058594 84.175781 386.464844 84.328125 387.1875 84.515625 M 336.949219 85.285156 C 338.089844 85.460938 339.773438 85.453125 340.699219 85.277344 C 341.617188 85.101562 340.6875 84.960938 338.625 84.964844 C 336.5625 84.96875 335.808594 85.117188 336.949219 85.285156 M 396.5625 85.277344 C 397.492188 85.457031 399.007812 85.457031 399.9375 85.277344 C 400.867188 85.101562 400.105469 84.953125 398.25 84.953125 C 396.394531 84.953125 395.632812 85.101562 396.5625 85.277344 M 1119.214844 88.125 C 1119.21875 90.1875 1119.367188 90.941406 1119.535156 89.800781 C 1119.710938 88.660156 1119.703125 86.976562 1119.527344 86.050781 C 1119.351562 85.132812 1119.210938 86.0625 1119.214844 88.125 M 939.980469 101.625 C 939.988281 104.101562 940.128906 105.019531 940.292969 103.675781 C 940.460938 102.328125 940.457031 100.300781 940.285156 99.175781 C 940.117188 98.046875 939.976562 99.148438 939.980469 101.625 M 1119.214844 122.625 C 1119.21875 124.6875 1119.367188 125.441406 1119.535156 124.300781 C 1119.710938 123.160156 1119.703125 121.476562 1119.527344 120.550781 C 1119.351562 119.632812 1119.210938 120.5625 1119.214844 122.625 M 939.980469 134.625 C 939.988281 137.101562 940.128906 138.019531 940.292969 136.675781 C 940.460938 135.328125 940.457031 133.300781 940.285156 132.175781 C 940.117188 131.046875 939.976562 132.148438 939.980469 134.625 M 849.976562 141.75 C 849.976562 144.019531 850.117188 144.949219 850.285156 143.8125 C 850.457031 142.675781 850.457031 140.824219 850.285156 139.6875 C 850.117188 138.550781 849.976562 139.480469 849.976562 141.75 M 563.625 152.25 C 566.488281 155.136719 569.003906 157.5 569.210938 157.5 C 569.414062 157.5 567.238281 155.136719 564.375 152.25 C 561.511719 149.363281 558.996094 147 558.789062 147 C 558.585938 147 560.761719 149.363281 563.625 152.25 M 850.816406 167.25 C 850.816406 175.707031 850.925781 179.164062 851.058594 174.9375 C 851.191406 170.710938 851.191406 163.789062 851.058594 159.5625 C 850.925781 155.335938 850.816406 158.792969 850.816406 167.25 M 1116.9375 157.875 C 1116.949219 159.523438 1117.101562 160.113281 1117.28125 159.179688 C 1117.460938 158.246094 1117.453125 156.898438 1117.265625 156.179688 C 1117.078125 155.464844 1116.929688 156.226562 1116.9375 157.875 M 748.675781 162 C 748.675781 163.441406 748.828125 164.035156 749.015625 163.3125 C 749.203125 162.589844 749.203125 161.410156 749.015625 160.6875 C 748.828125 159.964844 748.675781 160.558594 748.675781 162 M 937.675781 165.75 C 937.675781 167.191406 937.828125 167.785156 938.015625 167.0625 C 938.203125 166.339844 938.203125 165.160156 938.015625 164.4375 C 937.828125 163.714844 937.675781 164.308594 937.675781 165.75 M 849.976562 192 C 849.976562 194.269531 850.117188 195.199219 850.285156 194.0625 C 850.457031 192.925781 850.457031 191.074219 850.285156 189.9375 C 850.117188 188.800781 849.976562 189.730469 849.976562 192 M 748.675781 202.5 C 748.675781 203.941406 748.828125 204.535156 749.015625 203.8125 C 749.203125 203.089844 749.203125 201.910156 749.015625 201.1875 C 748.828125 200.464844 748.675781 201.058594 748.675781 202.5 M 547.5 207.375 C 548.898438 208.816406 550.210938 210 550.417969 210 C 550.625 210 549.648438 208.816406 548.25 207.375 C 546.851562 205.933594 545.539062 204.75 545.332031 204.75 C 545.125 204.75 546.101562 205.933594 547.5 207.375 M 697.007812 214.875 C 697.011719 218.175781 697.144531 219.433594 697.300781 217.667969 C 697.457031 215.902344 697.453125 213.203125 697.296875 211.667969 C 697.132812 210.132812 697.003906 211.574219 697.007812 214.875 M 555 214.734375 C 555 214.863281 556.097656 215.960938 557.4375 217.171875 L 559.875 219.375 L 557.671875 216.9375 C 555.617188 214.664062 555 214.15625 555 214.734375 M 35.589844 234.9375 L 32.625 238.125 L 35.8125 235.160156 C 38.777344 232.402344 39.34375 231.75 38.777344 231.75 C 38.65625 231.75 37.222656 233.183594 35.589844 234.9375 M 405.1875 265.265625 C 405.910156 265.453125 407.089844 265.453125 407.8125 265.265625 C 408.535156 265.078125 407.941406 264.925781 406.5 264.925781 C 405.058594 264.925781 404.464844 265.078125 405.1875 265.265625 M 444.1875 265.265625 C 444.910156 265.453125 446.089844 265.453125 446.8125 265.265625 C 447.535156 265.078125 446.941406 264.925781 445.5 264.925781 C 444.058594 264.925781 443.464844 265.078125 444.1875 265.265625 M 135.734375 287.0625 L 128.625 294.375 L 135.9375 287.265625 C 142.726562 280.660156 143.59375 279.75 143.050781 279.75 C 142.933594 279.75 139.648438 283.039062 135.734375 287.0625 M 120.328125 303.1875 L 118.125 305.625 L 120.5625 303.421875 C 121.902344 302.210938 123 301.113281 123 300.984375 C 123 300.40625 122.382812 300.914062 120.328125 303.1875 M 692.578125 312.9375 L 690.375 315.375 L 692.8125 313.171875 C 694.152344 311.960938 695.25 310.863281 695.25 310.734375 C 695.25 310.15625 694.632812 310.664062 692.578125 312.9375 M 467.4375 311.765625 C 468.160156 311.953125 469.339844 311.953125 470.0625 311.765625 C 470.785156 311.578125 470.191406 311.425781 468.75 311.425781 C 467.308594 311.425781 466.714844 311.578125 467.4375 311.765625 M 597.925781 313.5 C 597.925781 314.941406 598.078125 315.535156 598.265625 314.8125 C 598.453125 314.089844 598.453125 312.910156 598.265625 312.1875 C 598.078125 311.464844 597.925781 312.058594 597.925781 313.5 M 555.75 321.984375 C 555.75 322.113281 556.847656 323.210938 558.1875 324.421875 L 560.625 326.625 L 558.421875 324.1875 C 556.367188 321.914062 555.75 321.40625 555.75 321.984375 M 642 333.375 C 638.929688 336.46875 636.582031 339 636.789062 339 C 636.992188 339 639.679688 336.46875 642.75 333.375 C 645.820312 330.28125 648.167969 327.75 647.960938 327.75 C 647.757812 327.75 645.070312 330.28125 642 333.375 M 599.464844 333.375 C 599.46875 335.4375 599.617188 336.191406 599.785156 335.050781 C 599.960938 333.910156 599.953125 332.226562 599.777344 331.300781 C 599.601562 330.382812 599.460938 331.3125 599.464844 333.375 M 857.605469 348.9375 L 851.625 355.125 L 857.8125 349.144531 C 861.214844 345.851562 864 343.066406 864 342.953125 C 864 342.40625 863.164062 343.191406 857.605469 348.9375 M 599.261719 351.9375 C 599.269531 353.851562 599.515625 354.742188 599.878906 354.171875 C 600.449219 353.269531 600.167969 348.75 599.539062 348.75 C 599.378906 348.75 599.257812 350.183594 599.261719 351.9375 M 242.589844 357.9375 L 239.625 361.125 L 242.8125 358.160156 C 245.777344 355.402344 246.34375 354.75 245.777344 354.75 C 245.65625 354.75 244.222656 356.183594 242.589844 357.9375 M 584.203125 364.726562 C 585.75 366.722656 588.097656 367.882812 587.515625 366.359375 C 587.269531 365.714844 586.882812 365.371094 586.65625 365.59375 C 586.429688 365.820312 585.550781 365.410156 584.699219 364.6875 C 583.214844 363.433594 583.195312 363.433594 584.203125 364.726562 M 628.609375 369.984375 C 629.144531 370.554688 630.195312 370.863281 630.945312 370.664062 C 632.597656 370.234375 632.472656 370.105469 629.757812 369.453125 C 627.972656 369.023438 627.792969 369.109375 628.609375 369.984375 M 333.328125 375.1875 L 331.125 377.625 L 333.5625 375.421875 C 335.835938 373.367188 336.34375 372.75 335.765625 372.75 C 335.636719 372.75 334.539062 373.847656 333.328125 375.1875 M 677.4375 375.550781 C 679.398438 375.703125 682.601562 375.703125 684.5625 375.550781 C 686.523438 375.394531 684.917969 375.269531 681 375.269531 C 677.082031 375.269531 675.476562 375.394531 677.4375 375.550781 M 539.097656 380.058594 C 542.519531 380.199219 547.921875 380.195312 551.097656 380.058594 C 554.273438 379.917969 551.476562 379.804688 544.875 379.804688 C 538.273438 379.804688 535.675781 379.921875 539.097656 380.058594 M 1007.210938 401.8125 L 1004.625 404.625 L 1007.4375 402.039062 C 1010.054688 399.636719 1010.59375 399 1010.023438 399 C 1009.894531 399 1008.628906 400.265625 1007.210938 401.8125 M 715.320312 401.03125 C 716.253906 401.210938 717.601562 401.203125 718.320312 401.015625 C 719.035156 400.828125 718.273438 400.679688 716.625 400.6875 C 714.976562 400.699219 714.386719 400.851562 715.320312 401.03125 M 747.5625 401.027344 C 748.492188 401.207031 750.007812 401.207031 750.9375 401.027344 C 751.867188 400.851562 751.105469 400.703125 749.25 400.703125 C 747.394531 400.703125 746.632812 400.851562 747.5625 401.027344 M 724.699219 401.785156 C 725.839844 401.960938 727.523438 401.953125 728.449219 401.777344 C 729.367188 401.601562 728.4375 401.460938 726.375 401.464844 C 724.3125 401.46875 723.558594 401.617188 724.699219 401.785156 M 737.074219 401.792969 C 738.421875 401.960938 740.449219 401.957031 741.574219 401.785156 C 742.703125 401.617188 741.601562 401.476562 739.125 401.480469 C 736.648438 401.488281 735.730469 401.628906 737.074219 401.792969 M 582.730469 413.0625 L 577.875 418.125 L 582.9375 413.269531 C 585.722656 410.601562 588 408.324219 588 408.210938 C 588 407.65625 587.234375 408.359375 582.730469 413.0625 M 621.925781 420.75 C 621.925781 422.191406 622.078125 422.785156 622.265625 422.0625 C 622.453125 421.339844 622.453125 420.160156 622.265625 419.4375 C 622.078125 418.714844 621.925781 419.308594 621.925781 420.75 M 984.75 424.125 C 982.929688 425.980469 981.605469 427.5 981.8125 427.5 C 982.019531 427.5 983.679688 425.980469 985.5 424.125 C 987.320312 422.269531 988.644531 420.75 988.4375 420.75 C 988.230469 420.75 986.570312 422.269531 984.75 424.125 M 422.210938 425.8125 L 419.625 428.625 L 422.4375 426.039062 C 425.054688 423.636719 425.59375 423 425.023438 423 C 424.894531 423 423.628906 424.265625 422.210938 425.8125 M 976.828125 431.4375 L 974.625 433.875 L 977.0625 431.671875 C 979.335938 429.617188 979.84375 429 979.265625 429 C 979.136719 429 978.039062 430.097656 976.828125 431.4375 M 412.460938 435.5625 L 409.875 438.375 L 412.6875 435.789062 C 415.304688 433.386719 415.84375 432.75 415.273438 432.75 C 415.144531 432.75 413.878906 434.015625 412.460938 435.5625 M 472.851562 437.4375 L 468.375 442.125 L 473.0625 437.648438 C 475.640625 435.1875 477.75 433.078125 477.75 432.960938 C 477.75 432.40625 477.007812 433.082031 472.851562 437.4375 M 1095 455.625 C 1093.179688 457.480469 1091.855469 459 1092.0625 459 C 1092.269531 459 1093.929688 457.480469 1095.75 455.625 C 1097.570312 453.769531 1098.894531 452.25 1098.6875 452.25 C 1098.480469 452.25 1096.820312 453.769531 1095 455.625 M 1079.25 471.375 C 1077.429688 473.230469 1076.105469 474.75 1076.3125 474.75 C 1076.519531 474.75 1078.179688 473.230469 1080 471.375 C 1081.820312 469.519531 1083.144531 468 1082.9375 468 C 1082.730469 468 1081.070312 469.519531 1079.25 471.375 M 671.625 477 C 674.488281 479.890625 677.003906 482.25 677.210938 482.25 C 677.414062 482.25 675.238281 479.890625 672.375 477 C 669.511719 474.109375 666.996094 471.75 666.789062 471.75 C 666.585938 471.75 668.761719 474.109375 671.625 477 M 1069.460938 480.5625 L 1066.875 483.375 L 1069.6875 480.789062 C 1072.304688 478.386719 1072.84375 477.75 1072.273438 477.75 C 1072.144531 477.75 1070.878906 479.015625 1069.460938 480.5625 M 569.425781 495 C 569.425781 496.441406 569.578125 497.035156 569.765625 496.3125 C 569.953125 495.589844 569.953125 494.410156 569.765625 493.6875 C 569.578125 492.964844 569.425781 493.558594 569.425781 495 M 757.6875 520.265625 C 758.410156 520.453125 759.589844 520.453125 760.3125 520.265625 C 761.035156 520.078125 760.441406 519.925781 759 519.925781 C 757.558594 519.925781 756.964844 520.078125 757.6875 520.265625 M 797.4375 520.265625 C 798.160156 520.453125 799.339844 520.453125 800.0625 520.265625 C 800.785156 520.078125 800.191406 519.925781 798.75 519.925781 C 797.308594 519.925781 796.714844 520.078125 797.4375 520.265625 M 528.925781 522.75 C 528.925781 524.191406 529.078125 524.785156 529.265625 524.0625 C 529.453125 523.339844 529.453125 522.160156 529.265625 521.4375 C 529.078125 520.714844 528.925781 521.308594 528.925781 522.75 M 789.9375 521.015625 C 790.660156 521.203125 791.839844 521.203125 792.5625 521.015625 C 793.285156 520.828125 792.691406 520.675781 791.25 520.675781 C 789.808594 520.675781 789.214844 520.828125 789.9375 521.015625 M 430.675781 530.25 C 430.675781 531.691406 430.828125 532.285156 431.015625 531.5625 C 431.203125 530.839844 431.203125 529.660156 431.015625 528.9375 C 430.828125 528.214844 430.675781 528.808594 430.675781 530.25 M 429.953125 539.25 C 429.953125 541.105469 430.101562 541.867188 430.277344 540.9375 C 430.457031 540.007812 430.457031 538.492188 430.277344 537.5625 C 430.101562 536.632812 429.953125 537.394531 429.953125 539.25 M 1198.054688 539.367188 C 1197.722656 539.902344 1197.847656 540.027344 1198.378906 539.699219 C 1199.027344 539.296875 1199.292969 558.589844 1199.4375 617.019531 L 1199.632812 694.875 L 1199.816406 616.6875 C 1199.988281 543.058594 1199.839844 536.476562 1198.054688 539.367188 M 1188 550.125 C 1186.179688 551.980469 1184.855469 553.5 1185.0625 553.5 C 1185.269531 553.5 1186.929688 551.980469 1188.75 550.125 C 1190.570312 548.269531 1191.894531 546.75 1191.6875 546.75 C 1191.480469 546.75 1189.820312 548.269531 1188 550.125 M 528.925781 559.5 C 528.925781 560.941406 529.078125 561.535156 529.265625 560.8125 C 529.453125 560.089844 529.453125 558.910156 529.265625 558.1875 C 529.078125 557.464844 528.925781 558.058594 528.925781 559.5 M 429.953125 561.75 C 429.953125 563.605469 430.101562 564.367188 430.277344 563.4375 C 430.457031 562.507812 430.457031 560.992188 430.277344 560.0625 C 430.101562 559.132812 429.953125 559.894531 429.953125 561.75 M 358.675781 570.75 C 358.675781 572.191406 358.828125 572.785156 359.015625 572.0625 C 359.203125 571.339844 359.203125 570.160156 359.015625 569.4375 C 358.828125 568.714844 358.675781 569.308594 358.675781 570.75 M 430.703125 571.5 C 430.703125 573.355469 430.851562 574.117188 431.027344 573.1875 C 431.207031 572.257812 431.207031 570.742188 431.027344 569.8125 C 430.851562 568.882812 430.703125 569.644531 430.703125 571.5 M 1162.089844 576.1875 L 1159.125 579.375 L 1162.3125 576.410156 C 1165.277344 573.652344 1165.84375 573 1165.277344 573 C 1165.15625 573 1163.722656 574.433594 1162.089844 576.1875 M 358.011719 582.75 C 358.011719 586.257812 358.140625 587.691406 358.300781 585.9375 C 358.457031 584.183594 358.457031 581.316406 358.300781 579.5625 C 358.140625 577.808594 358.011719 579.242188 358.011719 582.75 M 4.675781 582 C 4.675781 583.441406 4.828125 584.035156 5.015625 583.3125 C 5.203125 582.589844 5.203125 581.410156 5.015625 580.6875 C 4.828125 579.964844 4.675781 580.558594 4.675781 582 M 814.699219 586.285156 C 815.839844 586.460938 817.523438 586.453125 818.449219 586.277344 C 819.367188 586.101562 818.4375 585.960938 816.375 585.964844 C 814.3125 585.96875 813.558594 586.117188 814.699219 586.285156 M 238.675781 597.75 C 238.675781 599.191406 238.828125 599.785156 239.015625 599.0625 C 239.203125 598.339844 239.203125 597.160156 239.015625 596.4375 C 238.828125 595.714844 238.675781 596.308594 238.675781 597.75 M 358.015625 610.125 C 358.015625 613.839844 358.140625 615.449219 358.300781 613.710938 C 358.453125 611.96875 358.457031 608.929688 358.300781 606.960938 C 358.144531 604.988281 358.019531 606.410156 358.015625 610.125 M 132.925781 610.5 C 132.925781 611.941406 133.078125 612.535156 133.265625 611.8125 C 133.453125 611.089844 133.453125 609.910156 133.265625 609.1875 C 133.078125 608.464844 132.925781 609.058594 132.925781 610.5 M 2.480469 620.625 C 2.488281 623.101562 2.628906 624.019531 2.792969 622.675781 C 2.960938 621.328125 2.957031 619.300781 2.785156 618.175781 C 2.617188 617.046875 2.476562 618.148438 2.480469 620.625 M 358.675781 622.5 C 358.675781 623.941406 358.828125 624.535156 359.015625 623.8125 C 359.203125 623.089844 359.203125 621.910156 359.015625 621.1875 C 358.828125 620.464844 358.675781 621.058594 358.675781 622.5 M 236.4375 628.875 C 236.449219 630.523438 236.601562 631.113281 236.78125 630.179688 C 236.960938 629.246094 236.953125 627.898438 236.765625 627.179688 C 236.578125 626.464844 236.429688 627.226562 236.4375 628.875 M 130.730469 640.875 C 130.738281 643.351562 130.878906 644.269531 131.042969 642.925781 C 131.210938 641.578125 131.207031 639.550781 131.035156 638.425781 C 130.867188 637.296875 130.726562 638.398438 130.730469 640.875 M 2.488281 653.25 C 2.488281 655.933594 2.625 657.027344 2.792969 655.6875 C 2.957031 654.347656 2.957031 652.152344 2.792969 650.8125 C 2.625 649.472656 2.488281 650.566406 2.488281 653.25 M 130.054688 664.125 C 130.054688 671.140625 130.171875 674.105469 130.308594 670.726562 C 130.445312 667.339844 130.445312 661.605469 130.308594 657.976562 C 130.171875 654.34375 130.058594 657.109375 130.054688 664.125 M 236.464844 658.875 C 236.46875 660.9375 236.617188 661.691406 236.785156 660.550781 C 236.960938 659.410156 236.953125 657.726562 236.777344 656.800781 C 236.601562 655.882812 236.460938 656.8125 236.464844 658.875 M 587.625 680.25 C 589.234375 681.898438 590.722656 683.25 590.929688 683.25 C 591.136719 683.25 589.984375 681.898438 588.375 680.25 C 586.765625 678.601562 585.277344 677.25 585.070312 677.25 C 584.863281 677.25 586.015625 678.601562 587.625 680.25 M 3.925781 685.5 C 3.925781 686.941406 4.078125 687.535156 4.265625 686.8125 C 4.453125 686.089844 4.453125 684.910156 4.265625 684.1875 C 4.078125 683.464844 3.925781 684.058594 3.925781 685.5 M 130.726562 687 C 130.726562 689.269531 130.867188 690.199219 131.035156 689.0625 C 131.207031 687.925781 131.207031 686.074219 131.035156 684.9375 C 130.867188 683.800781 130.726562 684.730469 130.726562 687 M 238.675781 690 C 238.675781 691.441406 238.828125 692.035156 239.015625 691.3125 C 239.203125 690.589844 239.203125 689.410156 239.015625 688.6875 C 238.828125 687.964844 238.675781 688.558594 238.675781 690 M 4.6875 693.375 C 4.699219 695.023438 4.851562 695.613281 5.03125 694.679688 C 5.210938 693.746094 5.203125 692.398438 5.015625 691.679688 C 4.828125 690.964844 4.679688 691.726562 4.6875 693.375 M 825.570312 697.28125 C 826.503906 697.460938 827.851562 697.453125 828.570312 697.265625 C 829.285156 697.078125 828.523438 696.929688 826.875 696.9375 C 825.226562 696.949219 824.636719 697.101562 825.570312 697.28125 M 902.8125 697.277344 C 903.742188 697.457031 905.257812 697.457031 906.1875 697.277344 C 907.117188 697.101562 906.355469 696.953125 904.5 696.953125 C 902.644531 696.953125 901.882812 697.101562 902.8125 697.277344 M 834.1875 698.015625 C 834.910156 698.203125 836.089844 698.203125 836.8125 698.015625 C 837.535156 697.828125 836.941406 697.675781 835.5 697.675781 C 834.058594 697.675781 833.464844 697.828125 834.1875 698.015625 M 894.570312 698.03125 C 895.503906 698.210938 896.851562 698.203125 897.570312 698.015625 C 898.285156 697.828125 897.523438 697.679688 895.875 697.6875 C 894.226562 697.699219 893.636719 697.851562 894.570312 698.03125 M 851.449219 698.785156 C 852.589844 698.960938 854.273438 698.953125 855.199219 698.777344 C 856.117188 698.601562 855.1875 698.460938 853.125 698.464844 C 851.0625 698.46875 850.308594 698.617188 851.449219 698.785156 M 876.9375 698.785156 C 878.074219 698.957031 879.925781 698.957031 881.0625 698.785156 C 882.199219 698.617188 881.269531 698.476562 879 698.476562 C 876.730469 698.476562 875.800781 698.617188 876.9375 698.785156 M 132.925781 717.75 C 132.925781 719.191406 133.078125 719.785156 133.265625 719.0625 C 133.453125 718.339844 133.453125 717.160156 133.265625 716.4375 C 133.078125 715.714844 132.925781 716.308594 132.925781 717.75 "/>
<path style=" stroke:none;fill-rule:evenodd;fill:rgb(92.54902%,80%,54.901961%);fill-opacity:1;" d="M 365.4375 83.796875 C 366.984375 83.957031 369.515625 83.957031 371.0625 83.796875 C 372.609375 83.632812 371.34375 83.503906 368.25 83.503906 C 365.15625 83.503906 363.890625 83.632812 365.4375 83.796875 M 1119.238281 105.75 C 1119.238281 108.433594 1119.375 109.527344 1119.542969 108.1875 C 1119.707031 106.847656 1119.707031 104.652344 1119.542969 103.3125 C 1119.375 101.972656 1119.238281 103.066406 1119.238281 105.75 M 940.6875 130.875 C 940.699219 132.523438 940.851562 133.113281 941.03125 132.179688 C 941.210938 131.246094 941.203125 129.898438 941.015625 129.179688 C 940.828125 128.464844 940.679688 129.226562 940.6875 130.875 M 48.328125 221.4375 L 46.125 223.875 L 48.5625 221.671875 C 49.902344 220.460938 51 219.363281 51 219.234375 C 51 218.65625 50.382812 219.164062 48.328125 221.4375 M 42.339844 227.4375 L 39.375 230.625 L 42.5625 227.660156 C 44.316406 226.027344 45.75 224.59375 45.75 224.472656 C 45.75 223.90625 45.097656 224.472656 42.339844 227.4375 M 616.023438 277.125 C 616.027344 281.25 616.152344 282.84375 616.304688 280.660156 C 616.453125 278.484375 616.453125 275.109375 616.300781 273.160156 C 616.144531 271.21875 616.023438 273 616.023438 277.125 M 542.082031 379.300781 C 543.847656 379.457031 546.546875 379.453125 548.082031 379.296875 C 549.617188 379.132812 548.175781 379.003906 544.875 379.007812 C 541.574219 379.011719 540.316406 379.144531 542.082031 379.300781 M 569.453125 504.75 C 569.453125 506.605469 569.601562 507.367188 569.777344 506.4375 C 569.957031 505.507812 569.957031 503.992188 569.777344 503.0625 C 569.601562 502.132812 569.453125 502.894531 569.453125 504.75 M 775.6875 521.046875 C 777.234375 521.207031 779.765625 521.207031 781.3125 521.046875 C 782.859375 520.882812 781.59375 520.753906 778.5 520.753906 C 775.40625 520.753906 774.140625 520.882812 775.6875 521.046875 M 828.1875 586.265625 C 828.910156 586.453125 830.089844 586.453125 830.8125 586.265625 C 831.535156 586.078125 830.941406 585.925781 829.5 585.925781 C 828.058594 585.925781 827.464844 586.078125 828.1875 586.265625 M 357.203125 592.5 C 357.203125 594.355469 357.351562 595.117188 357.527344 594.1875 C 357.707031 593.257812 357.707031 591.742188 357.527344 590.8125 C 357.351562 589.882812 357.203125 590.644531 357.203125 592.5 M 357.203125 600.75 C 357.203125 602.605469 357.351562 603.367188 357.527344 602.4375 C 357.707031 601.507812 357.707031 599.992188 357.527344 599.0625 C 357.351562 598.132812 357.203125 598.894531 357.203125 600.75 "/>
<path style=" stroke:none;fill-rule:evenodd;fill:rgb(92.54902%,80%,58.039216%);fill-opacity:1;" d="M 1114.675781 39.75 C 1114.675781 41.191406 1114.828125 41.785156 1115.015625 41.0625 C 1115.203125 40.339844 1115.203125 39.160156 1115.015625 38.4375 C 1114.828125 37.714844 1114.675781 38.308594 1114.675781 39.75 M 936.925781 58.5 C 936.925781 59.941406 937.078125 60.535156 937.265625 59.8125 C 937.453125 59.089844 937.453125 57.910156 937.265625 57.1875 C 937.078125 56.464844 936.925781 57.058594 936.925781 58.5 M 620.625 69 C 622.234375 70.648438 623.722656 72 623.929688 72 C 624.136719 72 622.984375 70.648438 621.375 69 C 619.765625 67.351562 618.277344 66 618.070312 66 C 617.863281 66 619.015625 67.351562 620.625 69 M 1117.730469 70.875 C 1117.738281 73.351562 1117.878906 74.269531 1118.042969 72.925781 C 1118.210938 71.578125 1118.207031 69.550781 1118.035156 68.425781 C 1117.867188 67.296875 1117.726562 68.398438 1117.730469 70.875 M 635.625 84 C 637.234375 85.648438 638.722656 87 638.929688 87 C 639.136719 87 637.984375 85.648438 636.375 84 C 634.765625 82.351562 633.277344 81 633.070312 81 C 632.863281 81 634.015625 82.351562 635.625 84 M 356.0625 83.792969 C 357.402344 83.957031 359.597656 83.957031 360.9375 83.792969 C 362.277344 83.625 361.183594 83.488281 358.5 83.488281 C 355.816406 83.488281 354.722656 83.625 356.0625 83.792969 M 375.546875 83.789062 C 376.878906 83.957031 379.238281 83.960938 380.796875 83.796875 C 382.351562 83.632812 381.265625 83.5 378.375 83.496094 C 375.484375 83.492188 374.214844 83.625 375.546875 83.789062 M 939.976562 87 C 939.976562 89.269531 940.117188 90.199219 940.285156 89.0625 C 940.457031 87.925781 940.457031 86.074219 940.285156 84.9375 C 940.117188 83.800781 939.976562 84.730469 939.976562 87 M 321.9375 86.015625 C 322.660156 86.203125 323.839844 86.203125 324.5625 86.015625 C 325.285156 85.828125 324.691406 85.675781 323.25 85.675781 C 321.808594 85.675781 321.214844 85.828125 321.9375 86.015625 M 411.9375 86.015625 C 412.660156 86.203125 413.839844 86.203125 414.5625 86.015625 C 415.285156 85.828125 414.691406 85.675781 413.25 85.675781 C 411.808594 85.675781 411.214844 85.828125 411.9375 86.015625 M 283.5 92.28125 C 282.679688 92.839844 282.980469 92.910156 284.625 92.539062 C 287.382812 91.925781 287.980469 91.496094 286.0625 91.511719 C 285.273438 91.519531 284.117188 91.867188 283.5 92.28125 M 940.730469 100.125 C 940.738281 102.601562 940.878906 103.519531 941.042969 102.175781 C 941.210938 100.828125 941.207031 98.800781 941.035156 97.675781 C 940.867188 96.546875 940.726562 97.648438 940.730469 100.125 M 847.6875 124.125 C 847.699219 125.773438 847.851562 126.363281 848.03125 125.429688 C 848.210938 124.496094 848.203125 123.148438 848.015625 122.429688 C 847.828125 121.714844 847.679688 122.476562 847.6875 124.125 M 1118.425781 131.25 C 1118.425781 132.691406 1118.578125 133.285156 1118.765625 132.5625 C 1118.953125 131.839844 1118.953125 130.660156 1118.765625 129.9375 C 1118.578125 129.214844 1118.425781 129.808594 1118.425781 131.25 M 940.714844 136.875 C 940.71875 138.9375 940.867188 139.691406 941.035156 138.550781 C 941.210938 137.410156 941.203125 135.726562 941.027344 134.800781 C 940.851562 133.882812 940.710938 134.8125 940.714844 136.875 M 1117.730469 139.875 C 1117.738281 142.351562 1117.878906 143.269531 1118.042969 141.925781 C 1118.210938 140.578125 1118.207031 138.550781 1118.035156 137.425781 C 1117.867188 136.296875 1117.726562 137.398438 1117.730469 139.875 M 564 151.875 C 567.902344 155.792969 571.261719 159 571.46875 159 C 571.675781 159 568.652344 155.792969 564.75 151.875 C 560.847656 147.957031 557.488281 144.75 557.28125 144.75 C 557.074219 144.75 560.097656 147.957031 564 151.875 M 747.492188 148.875 C 747.742188 150.523438 748.074219 152.015625 748.222656 152.1875 C 748.792969 152.832031 748.367188 148.816406 747.714844 147.375 C 747.238281 146.332031 747.175781 146.785156 747.492188 148.875 M 939.976562 150 C 939.976562 152.269531 940.117188 153.199219 940.285156 152.0625 C 940.457031 150.925781 940.457031 149.074219 940.285156 147.9375 C 940.117188 146.800781 939.976562 147.730469 939.976562 150 M 850.058594 166.875 C 850.0625 174.300781 850.171875 177.238281 850.308594 173.398438 C 850.445312 169.5625 850.445312 163.488281 850.308594 159.898438 C 850.171875 156.3125 850.058594 159.449219 850.058594 166.875 M 408.1875 165.535156 C 409.324219 165.707031 411.175781 165.707031 412.3125 165.535156 C 413.449219 165.367188 412.519531 165.226562 410.25 165.226562 C 407.980469 165.226562 407.050781 165.367188 408.1875 165.535156 M 428.8125 165.527344 C 429.742188 165.707031 431.257812 165.707031 432.1875 165.527344 C 433.117188 165.351562 432.355469 165.203125 430.5 165.203125 C 428.644531 165.203125 427.882812 165.351562 428.8125 165.527344 M 398.074219 166.292969 C 399.421875 166.460938 401.449219 166.457031 402.574219 166.285156 C 403.703125 166.117188 402.601562 165.976562 400.125 165.980469 C 397.648438 165.988281 396.730469 166.128906 398.074219 166.292969 M 437.824219 166.292969 C 439.171875 166.460938 441.199219 166.457031 442.324219 166.285156 C 443.453125 166.117188 442.351562 165.976562 439.875 165.980469 C 437.398438 165.988281 436.480469 166.128906 437.824219 166.292969 M 1114.675781 171 C 1114.675781 172.441406 1114.828125 173.035156 1115.015625 172.3125 C 1115.203125 171.589844 1115.203125 170.410156 1115.015625 169.6875 C 1114.828125 168.964844 1114.675781 169.558594 1114.675781 171 M 750.292969 182.25 C 750.292969 187.816406 750.410156 190.097656 750.554688 187.3125 C 750.699219 184.527344 750.699219 179.972656 750.554688 177.1875 C 750.410156 174.402344 750.292969 176.683594 750.292969 182.25 M 694.675781 195 C 694.675781 196.441406 694.828125 197.035156 695.015625 196.3125 C 695.203125 195.589844 695.203125 194.410156 695.015625 193.6875 C 694.828125 192.964844 694.675781 193.558594 694.675781 195 M 548.625 209.25 C 550.234375 210.898438 551.722656 212.25 551.929688 212.25 C 552.136719 212.25 550.984375 210.898438 549.375 209.25 C 547.765625 207.601562 546.277344 206.25 546.070312 206.25 C 545.863281 206.25 547.015625 207.601562 548.625 209.25 M 847.675781 208.5 C 847.675781 209.941406 847.828125 210.535156 848.015625 209.8125 C 848.203125 209.089844 848.203125 207.910156 848.015625 207.1875 C 847.828125 206.464844 847.675781 207.058594 847.675781 208.5 M 696.261719 214.5 C 696.261719 218.007812 696.390625 219.441406 696.550781 217.6875 C 696.707031 215.933594 696.707031 213.066406 696.550781 211.3125 C 696.390625 209.558594 696.261719 210.992188 696.261719 214.5 M 55.839844 213.9375 L 52.875 217.125 L 56.0625 214.160156 C 57.816406 212.527344 59.25 211.09375 59.25 210.972656 C 59.25 210.40625 58.597656 210.972656 55.839844 213.9375 M 555 215.625 C 556.398438 217.066406 557.710938 218.25 557.917969 218.25 C 558.125 218.25 557.148438 217.066406 555.75 215.625 C 554.351562 214.183594 553.039062 213 552.832031 213 C 552.625 213 553.601562 214.183594 555 215.625 M 844.96875 226.15625 C 844.710938 226.824219 844.53125 227.9375 844.5625 228.625 C 844.597656 229.3125 844.925781 228.878906 845.289062 227.664062 C 845.996094 225.296875 845.746094 224.125 844.96875 226.15625 M 36 233.625 C 34.179688 235.480469 32.855469 237 33.0625 237 C 33.269531 237 34.929688 235.480469 36.75 233.625 C 38.570312 231.769531 39.894531 230.25 39.6875 230.25 C 39.480469 230.25 37.820312 231.769531 36 233.625 M 615.980469 265.875 C 615.988281 268.351562 616.128906 269.269531 616.292969 267.925781 C 616.460938 266.578125 616.457031 264.550781 616.285156 263.425781 C 616.117188 262.296875 615.976562 263.398438 615.980469 265.875 M 421.6875 263.804688 C 424.058594 263.953125 427.941406 263.953125 430.3125 263.804688 C 432.683594 263.65625 430.742188 263.535156 426 263.535156 C 421.257812 263.535156 419.316406 263.65625 421.6875 263.804688 M 136.5 286.875 C 133.429688 289.96875 131.082031 292.5 131.289062 292.5 C 131.492188 292.5 134.179688 289.96875 137.25 286.875 C 140.320312 283.78125 142.667969 281.25 142.460938 281.25 C 142.257812 281.25 139.570312 283.78125 136.5 286.875 M 615.988281 288.75 C 615.988281 291.433594 616.125 292.527344 616.292969 291.1875 C 616.457031 289.847656 616.457031 287.652344 616.292969 286.3125 C 616.125 284.972656 615.988281 286.066406 615.988281 288.75 M 122.210938 302.0625 L 119.625 304.875 L 122.4375 302.289062 C 125.054688 299.886719 125.59375 299.25 125.023438 299.25 C 124.894531 299.25 123.628906 300.515625 122.210938 302.0625 M 612.835938 312.875 C 612.789062 313.5625 612.554688 314.746094 612.316406 315.5 C 611.910156 316.804688 611.929688 316.804688 612.742188 315.539062 C 613.214844 314.804688 613.449219 313.621094 613.261719 312.914062 C 612.957031 311.753906 612.914062 311.746094 612.835938 312.875 M 691.828125 314.4375 L 689.625 316.875 L 692.0625 314.671875 C 693.402344 313.460938 694.5 312.363281 694.5 312.234375 C 694.5 311.65625 693.882812 312.164062 691.828125 314.4375 M 441.1875 313.265625 C 441.910156 313.453125 443.089844 313.453125 443.8125 313.265625 C 444.535156 313.078125 443.941406 312.925781 442.5 312.925781 C 441.058594 312.925781 440.464844 313.078125 441.1875 313.265625 M 477.1875 313.265625 C 477.910156 313.453125 479.089844 313.453125 479.8125 313.265625 C 480.535156 313.078125 479.941406 312.925781 478.5 312.925781 C 477.058594 312.925781 476.464844 313.078125 477.1875 313.265625 M 650.960938 323.0625 L 648.375 325.875 L 651.1875 323.289062 C 653.804688 320.886719 654.34375 320.25 653.773438 320.25 C 653.644531 320.25 652.378906 321.515625 650.960938 323.0625 M 801.328125 324.9375 L 799.125 327.375 L 801.5625 325.171875 C 802.902344 323.960938 804 322.863281 804 322.734375 C 804 322.15625 803.382812 322.664062 801.328125 324.9375 M 598.648438 341.019531 C 598.566406 348.9375 598.753906 355.570312 599.0625 355.761719 C 599.371094 355.953125 599.539062 351.667969 599.429688 346.242188 C 599.074219 328.300781 598.796875 326.429688 598.648438 341.019531 M 641.597656 333.1875 L 637.875 337.125 L 641.8125 333.402344 C 645.472656 329.945312 646.09375 329.25 645.535156 329.25 C 645.417969 329.25 643.644531 331.023438 641.597656 333.1875 M 862.839844 344.4375 L 859.875 347.625 L 863.0625 344.660156 C 866.027344 341.902344 866.59375 341.25 866.027344 341.25 C 865.90625 341.25 864.472656 342.683594 862.839844 344.4375 M 853.089844 354.1875 L 850.125 357.375 L 853.3125 354.410156 C 856.277344 351.652344 856.84375 351 856.277344 351 C 856.15625 351 854.722656 352.433594 853.089844 354.1875 M 350.210938 359.0625 L 347.625 361.875 L 350.4375 359.289062 C 351.984375 357.871094 353.25 356.605469 353.25 356.476562 C 353.25 355.90625 352.613281 356.445312 350.210938 359.0625 M 335.210938 374.0625 L 332.625 376.875 L 335.4375 374.289062 C 338.054688 371.886719 338.59375 371.25 338.023438 371.25 C 337.894531 371.25 336.628906 372.515625 335.210938 374.0625 M 659.8125 374.027344 C 660.742188 374.207031 662.257812 374.207031 663.1875 374.027344 C 664.117188 373.851562 663.355469 373.703125 661.5 373.703125 C 659.644531 373.703125 658.882812 373.851562 659.8125 374.027344 M 698.8125 374.027344 C 699.742188 374.207031 701.257812 374.207031 702.1875 374.027344 C 703.117188 373.851562 702.355469 373.703125 700.5 373.703125 C 698.644531 373.703125 697.882812 373.851562 698.8125 374.027344 M 533.4375 379.285156 C 534.574219 379.457031 536.425781 379.457031 537.5625 379.285156 C 538.699219 379.117188 537.769531 378.976562 535.5 378.976562 C 533.230469 378.976562 532.300781 379.117188 533.4375 379.285156 M 552.1875 379.285156 C 553.324219 379.457031 555.175781 379.457031 556.3125 379.285156 C 557.449219 379.117188 556.519531 378.976562 554.25 378.976562 C 551.980469 378.976562 551.050781 379.117188 552.1875 379.285156 M 523.3125 380.027344 C 524.242188 380.207031 525.757812 380.207031 526.6875 380.027344 C 527.617188 379.851562 526.855469 379.703125 525 379.703125 C 523.144531 379.703125 522.382812 379.851562 523.3125 380.027344 M 563.070312 380.03125 C 564.003906 380.210938 565.351562 380.203125 566.070312 380.015625 C 566.785156 379.828125 566.023438 379.679688 564.375 379.6875 C 562.726562 379.699219 562.136719 379.851562 563.070312 380.03125 M 620.535156 401.625 C 620.539062 406.574219 620.65625 408.5 620.804688 405.910156 C 620.953125 403.3125 620.953125 399.265625 620.800781 396.910156 C 620.65625 394.550781 620.535156 396.675781 620.535156 401.625 M 1003.847656 404.4375 L 1000.125 408.375 L 1004.0625 404.652344 C 1006.226562 402.605469 1008 400.832031 1008 400.714844 C 1008 400.15625 1007.304688 400.777344 1003.847656 404.4375 M 582.359375 412.6875 L 575.625 419.625 L 582.5625 412.890625 C 586.378906 409.1875 589.5 406.066406 589.5 405.953125 C 589.5 405.40625 588.613281 406.246094 582.359375 412.6875 M 48.871094 415.90625 C 47.617188 418.664062 47.855469 419.253906 49.214844 416.746094 C 49.847656 415.574219 50.226562 414.476562 50.054688 414.304688 C 49.882812 414.136719 49.351562 414.855469 48.871094 415.90625 M 987.355469 420.9375 L 982.125 426.375 L 987.5625 421.144531 C 992.613281 416.289062 993.34375 415.5 992.792969 415.5 C 992.679688 415.5 990.230469 417.949219 987.355469 420.9375 M 423.328125 423.9375 L 421.125 426.375 L 423.5625 424.171875 C 424.902344 422.960938 426 421.863281 426 421.734375 C 426 421.15625 425.382812 421.664062 423.328125 423.9375 M 977.578125 429.9375 L 975.375 432.375 L 977.8125 430.171875 C 980.085938 428.117188 980.59375 427.5 980.015625 427.5 C 979.886719 427.5 978.789062 428.597656 977.578125 429.9375 M 622.554688 432.0625 C 622.582031 433.058594 622.910156 434.550781 623.285156 435.375 C 623.761719 436.417969 623.824219 435.964844 623.507812 433.875 C 622.976562 430.390625 622.476562 429.441406 622.554688 432.0625 M 473.210938 437.8125 L 470.625 440.625 L 473.4375 438.039062 C 474.984375 436.621094 476.25 435.355469 476.25 435.226562 C 476.25 434.65625 475.613281 435.195312 473.210938 437.8125 M 1111.828125 438.1875 L 1109.625 440.625 L 1112.0625 438.421875 C 1114.335938 436.367188 1114.84375 435.75 1114.265625 435.75 C 1114.136719 435.75 1113.039062 436.847656 1111.828125 438.1875 M 1105.839844 444.9375 L 1102.875 448.125 L 1106.0625 445.160156 C 1109.027344 442.402344 1109.59375 441.75 1109.027344 441.75 C 1108.90625 441.75 1107.472656 443.183594 1105.839844 444.9375 M 1097.25 454.125 C 1095.429688 455.980469 1094.105469 457.5 1094.3125 457.5 C 1094.519531 457.5 1096.179688 455.980469 1098 454.125 C 1099.820312 452.269531 1101.144531 450.75 1100.9375 450.75 C 1100.730469 450.75 1099.070312 452.269531 1097.25 454.125 M 573.835938 467.375 C 573.789062 468.0625 573.554688 469.246094 573.316406 470 C 572.910156 471.304688 572.929688 471.304688 573.742188 470.039062 C 574.214844 469.304688 574.449219 468.121094 574.261719 467.414062 C 573.957031 466.253906 573.914062 466.246094 573.835938 467.375 M 1077.75 473.625 C 1075.929688 475.480469 1074.605469 477 1074.8125 477 C 1075.019531 477 1076.679688 475.480469 1078.5 473.625 C 1080.320312 471.769531 1081.644531 470.25 1081.4375 470.25 C 1081.230469 470.25 1079.570312 471.769531 1077.75 473.625 M 672 476.625 C 674.242188 478.894531 676.242188 480.75 676.449219 480.75 C 676.65625 480.75 674.992188 478.894531 672.75 476.625 C 670.507812 474.355469 668.507812 472.5 668.300781 472.5 C 668.09375 472.5 669.757812 474.355469 672 476.625 M 570.925781 485.25 C 570.925781 486.691406 571.078125 487.285156 571.265625 486.5625 C 571.453125 485.839844 571.453125 484.660156 571.265625 483.9375 C 571.078125 483.214844 570.925781 483.808594 570.925781 485.25 M 529.96875 509.65625 C 529.710938 510.324219 529.535156 511.605469 529.578125 512.5 C 529.625 513.527344 529.882812 513.160156 530.269531 511.507812 C 530.925781 508.71875 530.746094 507.625 529.96875 509.65625 M 765.9375 520.265625 C 766.660156 520.453125 767.839844 520.453125 768.5625 520.265625 C 769.285156 520.078125 768.691406 519.925781 767.25 519.925781 C 765.808594 519.925781 765.214844 520.078125 765.9375 520.265625 M 788.4375 520.265625 C 789.160156 520.453125 790.339844 520.453125 791.0625 520.265625 C 791.785156 520.078125 791.191406 519.925781 789.75 519.925781 C 788.308594 519.925781 787.714844 520.078125 788.4375 520.265625 M 527.515625 541.125 C 527.515625 544.839844 527.640625 546.449219 527.800781 544.710938 C 527.953125 542.96875 527.957031 539.929688 527.800781 537.960938 C 527.644531 535.988281 527.519531 537.410156 527.515625 541.125 M 430.730469 541.125 C 430.738281 543.601562 430.878906 544.519531 431.042969 543.175781 C 431.210938 541.828125 431.207031 539.800781 431.035156 538.675781 C 430.867188 537.546875 430.726562 538.648438 430.730469 541.125 M 680.25 539.625 C 681.648438 541.066406 682.960938 542.25 683.167969 542.25 C 683.375 542.25 682.398438 541.066406 681 539.625 C 679.601562 538.183594 678.289062 537 678.082031 537 C 677.875 537 678.851562 538.183594 680.25 539.625 M 1185.75 551.625 C 1183.929688 553.480469 1182.605469 555 1182.8125 555 C 1183.019531 555 1184.679688 553.480469 1186.5 551.625 C 1188.320312 549.769531 1189.644531 548.25 1189.4375 548.25 C 1189.230469 548.25 1187.570312 549.769531 1185.75 551.625 M 430.730469 559.875 C 430.738281 562.351562 430.878906 563.269531 431.042969 561.925781 C 431.210938 560.578125 431.207031 558.550781 431.035156 557.425781 C 430.867188 556.296875 430.726562 557.398438 430.730469 559.875 M 358.6875 562.125 C 358.699219 563.773438 358.851562 564.363281 359.03125 563.429688 C 359.210938 562.496094 359.203125 561.148438 359.015625 560.429688 C 358.828125 559.714844 358.679688 560.476562 358.6875 562.125 M 6.925781 568.5 C 6.925781 569.941406 7.078125 570.535156 7.265625 569.8125 C 7.453125 569.089844 7.453125 567.910156 7.265625 567.1875 C 7.078125 566.464844 6.925781 567.058594 6.925781 568.5 M 1163.589844 573.9375 L 1160.625 577.125 L 1163.8125 574.160156 C 1166.777344 571.402344 1167.34375 570.75 1166.777344 570.75 C 1166.65625 570.75 1165.222656 572.183594 1163.589844 573.9375 M 1154.210938 582.5625 L 1151.625 585.375 L 1154.4375 582.789062 C 1157.054688 580.386719 1157.59375 579.75 1157.023438 579.75 C 1156.894531 579.75 1155.628906 581.015625 1154.210938 582.5625 M 357.226562 585.75 C 357.226562 588.019531 357.367188 588.949219 357.535156 587.8125 C 357.707031 586.675781 357.707031 584.824219 357.535156 583.6875 C 357.367188 582.550781 357.226562 583.480469 357.226562 585.75 M 796.324219 586.292969 C 797.671875 586.460938 799.699219 586.457031 800.824219 586.285156 C 801.953125 586.117188 800.851562 585.976562 798.375 585.980469 C 795.898438 585.988281 794.980469 586.128906 796.324219 586.292969 M 833.824219 586.292969 C 835.171875 586.460938 837.199219 586.457031 838.324219 586.285156 C 839.453125 586.117188 838.351562 585.976562 835.875 585.980469 C 833.398438 585.988281 832.480469 586.128906 833.824219 586.292969 M 813.5625 587.050781 C 815.316406 587.207031 818.183594 587.207031 819.9375 587.050781 C 821.691406 586.890625 820.257812 586.761719 816.75 586.761719 C 813.242188 586.761719 811.808594 586.890625 813.5625 587.050781 M 3.980469 601.125 C 3.988281 603.601562 4.128906 604.519531 4.292969 603.175781 C 4.460938 601.828125 4.457031 599.800781 4.285156 598.675781 C 4.117188 597.546875 3.976562 598.648438 3.980469 601.125 M 357.226562 607.5 C 357.226562 609.769531 357.367188 610.699219 357.535156 609.5625 C 357.707031 608.425781 357.707031 606.574219 357.535156 605.4375 C 357.367188 604.300781 357.226562 605.230469 357.226562 607.5 M 3.1875 610.875 C 3.199219 612.523438 3.351562 613.113281 3.53125 612.179688 C 3.710938 611.246094 3.703125 609.898438 3.515625 609.179688 C 3.328125 608.464844 3.179688 609.226562 3.1875 610.875 M 237.976562 613.5 C 237.976562 615.769531 238.117188 616.699219 238.285156 615.5625 C 238.457031 614.425781 238.457031 612.574219 238.285156 611.4375 C 238.117188 610.300781 237.976562 611.230469 237.976562 613.5 M 130.726562 627 C 130.726562 629.269531 130.867188 630.199219 131.035156 629.0625 C 131.207031 627.925781 131.207031 626.074219 131.035156 624.9375 C 130.867188 623.800781 130.726562 624.730469 130.726562 627 M 358.6875 631.875 C 358.699219 633.523438 358.851562 634.113281 359.03125 633.179688 C 359.210938 632.246094 359.203125 630.898438 359.015625 630.179688 C 358.828125 629.464844 358.679688 630.226562 358.6875 631.875 M 129.964844 639.375 C 129.96875 641.4375 130.117188 642.191406 130.285156 641.050781 C 130.460938 639.910156 130.453125 638.226562 130.277344 637.300781 C 130.101562 636.382812 129.960938 637.3125 129.964844 639.375 M 3.1875 664.125 C 3.199219 665.773438 3.351562 666.363281 3.53125 665.429688 C 3.710938 664.496094 3.703125 663.148438 3.515625 662.429688 C 3.328125 661.714844 3.179688 662.476562 3.1875 664.125 M 237.175781 666.75 C 237.175781 668.191406 237.328125 668.785156 237.515625 668.0625 C 237.703125 667.339844 237.703125 666.160156 237.515625 665.4375 C 237.328125 664.714844 237.175781 665.308594 237.175781 666.75 M 3.988281 673.5 C 3.988281 676.183594 4.125 677.277344 4.292969 675.9375 C 4.457031 674.597656 4.457031 672.402344 4.292969 671.0625 C 4.125 669.722656 3.988281 670.816406 3.988281 673.5 M 237.964844 674.625 C 237.96875 676.6875 238.117188 677.441406 238.285156 676.300781 C 238.460938 675.160156 238.453125 673.476562 238.277344 672.550781 C 238.101562 671.632812 237.960938 672.5625 237.964844 674.625 M 4.675781 684.75 C 4.675781 686.191406 4.828125 686.785156 5.015625 686.0625 C 5.203125 685.339844 5.203125 684.160156 5.015625 683.4375 C 4.828125 682.714844 4.675781 683.308594 4.675781 684.75 M 129.964844 688.875 C 129.96875 690.9375 130.117188 691.691406 130.285156 690.550781 C 130.460938 689.410156 130.453125 687.726562 130.277344 686.800781 C 130.101562 685.882812 129.960938 686.8125 129.964844 688.875 M 774.8125 688.769531 C 774.984375 688.917969 776.136719 689.265625 777.375 689.539062 C 779.019531 689.910156 779.320312 689.839844 778.5 689.28125 C 777.484375 688.597656 774.058594 688.117188 774.8125 688.769531 M 951 689.28125 C 950.179688 689.839844 950.480469 689.910156 952.125 689.539062 C 954.882812 688.925781 955.480469 688.496094 953.5625 688.511719 C 952.773438 688.519531 951.617188 688.867188 951 689.28125 M 811.6875 695.015625 C 812.410156 695.203125 813.589844 695.203125 814.3125 695.015625 C 815.035156 694.828125 814.441406 694.675781 813 694.675781 C 811.558594 694.675781 810.964844 694.828125 811.6875 695.015625 M 604.875 698.25 C 606.484375 699.898438 607.972656 701.25 608.179688 701.25 C 608.386719 701.25 607.234375 699.898438 605.625 698.25 C 604.015625 696.601562 602.527344 695.25 602.320312 695.25 C 602.113281 695.25 603.265625 696.601562 604.875 698.25 M 835.6875 697.265625 C 836.410156 697.453125 837.589844 697.453125 838.3125 697.265625 C 839.035156 697.078125 838.441406 696.925781 837 696.925781 C 835.558594 696.925781 834.964844 697.078125 835.6875 697.265625 M 893.820312 697.28125 C 894.753906 697.460938 896.101562 697.453125 896.820312 697.265625 C 897.535156 697.078125 896.773438 696.929688 895.125 696.9375 C 893.476562 696.949219 892.886719 697.101562 893.820312 697.28125 M 130.726562 701.25 C 130.726562 703.519531 130.867188 704.449219 131.035156 703.3125 C 131.207031 702.175781 131.207031 700.324219 131.035156 699.1875 C 130.867188 698.050781 130.726562 698.980469 130.726562 701.25 M 849.21875 698.058594 C 852.019531 698.203125 856.40625 698.199219 858.96875 698.054688 C 861.53125 697.90625 859.238281 697.789062 853.875 697.789062 C 848.511719 697.792969 846.417969 697.910156 849.21875 698.058594 M 874.339844 698.054688 C 876.9375 698.203125 880.984375 698.203125 883.339844 698.050781 C 885.699219 697.90625 883.574219 697.785156 878.625 697.785156 C 873.675781 697.789062 871.75 697.90625 874.339844 698.054688 M 6.925781 708 C 6.925781 709.441406 7.078125 710.035156 7.265625 709.3125 C 7.453125 708.589844 7.453125 707.410156 7.265625 706.6875 C 7.078125 705.964844 6.925781 706.558594 6.925781 708 "/>
</g>
</svg>
